<svg width="17" height="15" viewBox="0 0 17 15" fill="none" xmlns="http://www.w3.org/2000/svg">
<path d="M2.75008 8.75743L8.06411 13.6026C8.15698 13.6873 8.20342 13.7296 8.2507 13.7568C8.40504 13.8456 8.59496 13.8456 8.7493 13.7568C8.79658 13.7296 8.84301 13.6873 8.93589 13.6026L14.2499 8.75743C15.7968 7.34705 15.9833 4.97814 14.6763 3.34304L14.4997 3.12212C12.9665 1.2042 9.95933 1.53229 8.87584 3.73569C8.72241 4.0477 8.27759 4.0477 8.12416 3.73569C7.04067 1.53229 4.03347 1.2042 2.50034 3.12213L2.32374 3.34305C1.01669 4.97815 1.20322 7.34705 2.75008 8.75743Z" stroke="#959595" stroke-width="2"/>
</svg>
