<svg width="17" height="17" viewBox="0 0 17 17" fill="none" xmlns="http://www.w3.org/2000/svg">
<path d="M10.0014 2.00969L9.00441 2.08712L9.00527 2.09817L9.00637 2.10919L10.0014 2.00969ZM10.0014 2.00965L10.9984 1.93221L10.9975 1.92116L10.9964 1.91013L10.0014 2.00965ZM10.0454 2.36346L9.07179 2.59183L9.07179 2.59184L10.0454 2.36346ZM11.5459 2.98499L12.0728 3.83489L12.0728 3.83489L11.5459 2.98499ZM11.8271 2.76592L12.4603 3.53988L12.4731 3.5294L12.4856 3.5185L11.8271 2.76592ZM11.8271 2.76591L11.1939 1.99194L11.1811 2.00243L11.1686 2.01333L11.8271 2.76591ZM11.9834 2.64312L12.5452 3.4704L12.5452 3.4704L11.9834 2.64312ZM13.1866 2.70313L13.8279 1.93586V1.93586L13.1866 2.70313ZM13.3299 2.84088L12.6228 3.54798L12.6228 3.54798L13.3299 2.84088ZM13.9926 3.50354L13.2855 4.21065L13.2855 4.21065L13.9926 3.50354ZM14.1305 3.64706L13.3631 4.2883L13.3632 4.28831L14.1305 3.64706ZM14.1905 4.85003L13.3632 4.28831L13.3631 4.28831L14.1905 4.85003ZM14.0675 5.00661L13.2936 4.37336L13.2923 4.37493L14.0675 5.00661ZM14.0675 5.00664L14.8414 5.63988L14.8427 5.63832L14.0675 5.00664ZM13.8483 5.288L12.9984 4.76109L12.9984 4.76109L13.8483 5.288ZM14.4698 6.78847L14.6982 5.8149L14.6982 5.8149L14.4698 6.78847ZM14.8237 6.83243L14.7242 7.82747L14.7242 7.82747L14.8237 6.83243ZM15.0211 6.85617L14.8334 7.83839L14.8334 7.83839L15.0211 6.85617ZM15.8294 7.74931L14.8334 7.83839V7.8384L15.8294 7.74931ZM15.8294 9.08404L14.8334 8.99508V8.99509L15.8294 9.08404ZM15.021 9.97733L14.8334 8.99509L15.021 9.97733ZM14.8238 10.001V11.001H14.8737L14.9234 10.9961L14.8238 10.001ZM14.8238 10.001V9.00103H14.774L14.7243 9.00599L14.8238 10.001ZM14.4705 10.0449L14.2423 9.07131L14.2423 9.07131L14.4705 10.0449ZM13.8489 11.5456L14.6987 11.0185L14.6987 11.0185L13.8489 11.5456ZM14.0677 11.8265L13.2937 12.4597L13.2995 12.4667L14.0677 11.8265ZM14.0678 11.8265L14.8417 11.1933L14.836 11.1863L14.0678 11.8265ZM14.1905 11.9828L15.0177 11.4209L15.0177 11.4209L14.1905 11.9828ZM14.1305 13.186L14.8977 13.8274L14.8977 13.8274L14.1305 13.186ZM13.9928 13.3293L13.2857 12.6221L13.2857 12.6221L13.9928 13.3293ZM13.33 13.9921L14.0371 14.6992H14.0371L13.33 13.9921ZM13.33 13.9921L14.0371 14.6992L14.0371 14.6992L13.33 13.9921ZM13.1866 14.1298L12.5453 13.3625L12.5453 13.3625L13.1866 14.1298ZM11.9835 14.1898L12.5453 13.3625L12.5453 13.3625L11.9835 14.1898ZM11.8272 14.067L12.4604 13.2931L12.4604 13.2931L11.8272 14.067ZM11.5459 13.8479L12.0728 12.998L12.0728 12.998L11.5459 13.8479ZM10.0454 14.4694L9.07184 14.241V14.241L10.0454 14.4694ZM10.0014 14.8234L9.0064 14.7239V14.7239L10.0014 14.8234ZM9.97765 15.0212L8.99545 14.8334L9.97765 15.0212ZM9.08464 15.8294L8.99545 14.8334H8.99545L9.08464 15.8294ZM7.74959 15.8294L7.83876 14.8334H7.83875L7.74959 15.8294ZM6.85655 15.0212L5.87435 15.209L5.87435 15.209L6.85655 15.0212ZM6.83278 14.8236L5.83774 14.9231H5.83775L6.83278 14.8236ZM6.78877 14.4694L5.81523 14.6979L6.78877 14.4694ZM5.28843 13.8479L5.81523 14.6979L5.81523 14.6979L5.28843 13.8479ZM5.00688 14.0672L4.37364 13.2933L4.36478 13.3005L4.35608 13.308L5.00688 14.0672ZM5.00686 14.0673L5.6401 14.8412L5.64896 14.834L5.65765 14.8265L5.00686 14.0673ZM4.85029 14.1902L5.41198 15.0176L5.41199 15.0176L4.85029 14.1902ZM3.64735 14.1302L3.00612 14.8976L3.00612 14.8976L3.64735 14.1302ZM3.5038 13.9923L2.79669 14.6994L2.79669 14.6994L3.5038 13.9923ZM2.84117 13.3297L3.54827 12.6226L3.54827 12.6226L2.84117 13.3297ZM2.70339 13.1863L1.93611 13.8276L1.93611 13.8276L2.70339 13.1863ZM2.64339 11.9832L1.8161 11.4214L2.64339 11.9832ZM2.76621 11.8268L2.01363 11.1683L2.00274 11.1807L1.99226 11.1936L2.76621 11.8268ZM2.76623 11.8268L3.5188 12.4853L3.5297 12.4728L3.54019 12.46L2.76623 11.8268ZM2.98532 11.5455L2.1354 11.0186L2.1354 11.0186L2.98532 11.5455ZM2.3638 10.045L2.59221 9.07147L2.59221 9.07147L2.3638 10.045ZM2.00985 10.0011L2.10935 9.00602L2.0987 9.00496L2.08804 9.00412L2.00985 10.0011ZM2.00981 10.0011L1.91029 10.9961L1.92094 10.9972L1.93162 10.998L2.00981 10.0011ZM1.81218 9.97729L2.00002 8.99509L2 8.99509L1.81218 9.97729ZM1.00398 9.08424L2 8.99509L1.00398 9.08424ZM1 8.88526H0H1ZM1 7.94838H2H1ZM1.00399 7.74911L0.00798696 7.65983L1.00399 7.74911ZM1.81206 6.85621L2 7.83839H2L1.81206 6.85621ZM2.00997 6.8324L1.92239 5.83617L1.91047 5.83737L2.00997 6.8324ZM2.01 6.8324L2.09759 7.82863L2.10951 7.82744L2.01 6.8324ZM2.36452 6.78834L2.59317 7.76185L2.59317 7.76185L2.36452 6.78834ZM2.98593 5.28813L2.13588 5.81483L2.98593 5.28813ZM2.76643 5.00631L3.54038 4.37307L3.53559 4.36721L3.53072 4.36144L2.76643 5.00631ZM2.76642 5.00629L1.99246 5.63953L1.99725 5.64539L2.00213 5.65117L2.76642 5.00629ZM2.64338 4.84962L3.47076 4.28798L3.47076 4.28798L2.64338 4.84962ZM2.70337 3.64679L3.47076 4.28798L2.70337 3.64679ZM2.8414 3.50313L2.13429 2.79602L2.13429 2.79602L2.8414 3.50313ZM3.5039 2.84063L4.211 3.54773L4.211 3.54773L3.5039 2.84063ZM3.64743 2.70273L4.28867 3.47007L4.28867 3.47006L3.64743 2.70273ZM4.85038 2.64273L5.4121 1.8154L5.41209 1.8154L4.85038 2.64273ZM5.007 2.76573L4.37376 3.53968L4.37376 3.53968L5.007 2.76573ZM5.28832 2.98488L5.81528 2.13498L5.81528 2.13498L5.28832 2.98488ZM6.78885 2.36334L5.81528 2.13498V2.13498L6.78885 2.36334ZM6.8328 2.00965L7.82783 2.10915L7.82882 2.09928L7.82961 2.08939L6.8328 2.00965ZM6.8328 2.00963L5.83776 1.91012L5.83678 1.91999L5.83598 1.92988L6.8328 2.00963ZM6.85652 1.81229L5.8743 1.62458L5.8743 1.62459L6.85652 1.81229ZM7.74971 1.00397L7.66067 0.00794411L7.74971 1.00397ZM9.08452 1.00397L9.17358 0.0079487V0.00794864L9.08452 1.00397ZM9.97767 1.81227L8.99545 2L8.99545 2L9.97767 1.81227ZM10.9984 1.93225L10.9984 1.93221L9.00441 2.08709L9.00441 2.08712L10.9984 1.93225ZM11.0189 2.13508C11.0247 2.15955 11.0237 2.16466 11.018 2.11697C11.0127 2.07223 11.0065 2.01079 10.9964 1.91018L9.00637 2.10919C9.02165 2.26205 9.03773 2.44665 9.07179 2.59183L11.0189 2.13508ZM11.0189 2.13508V2.13508L9.07179 2.59184C9.3841 3.92319 10.9106 4.55547 12.0728 3.83489L11.0189 2.13508ZM11.1938 1.99196C11.1156 2.05599 11.0678 2.09506 11.0324 2.12292C10.9947 2.15263 10.9976 2.14832 11.0189 2.13508L12.0728 3.83489C12.1995 3.75631 12.3414 3.63715 12.4603 3.53988L11.1938 1.99196ZM11.1686 2.01333L11.1686 2.01334L12.4856 3.5185L12.4856 3.51848L11.1686 2.01333ZM11.4217 1.81584C11.3387 1.87221 11.2573 1.94004 11.1939 1.99194L12.4603 3.53987C12.5026 3.50532 12.5253 3.48675 12.5422 3.4734C12.5574 3.46131 12.5553 3.46358 12.5452 3.4704L11.4217 1.81584ZM13.8279 1.93586C13.1426 1.36305 12.1606 1.31407 11.4217 1.81585L12.5452 3.4704L12.5452 3.4704L13.8279 1.93586ZM14.037 2.13377C13.9791 2.07579 13.9049 2.00021 13.8279 1.93586L12.5452 3.4704C12.5359 3.46262 12.534 3.46014 12.548 3.4737C12.5635 3.48866 12.5842 3.5094 12.6228 3.54798L14.037 2.13377ZM14.6997 2.79643L14.037 2.13377L12.6228 3.54798L13.2855 4.21065L14.6997 2.79643ZM14.8978 3.00582C14.8334 2.92874 14.7577 2.85446 14.6997 2.79643L13.2855 4.21065C13.3241 4.24927 13.3449 4.27008 13.3599 4.28554C13.3734 4.29954 13.3709 4.29763 13.3631 4.2883L14.8978 3.00582ZM15.0178 5.41174C15.5194 4.67291 15.4705 3.69106 14.8978 3.00581L13.3632 4.28831H13.3632L15.0178 5.41174ZM14.8415 5.63984C14.8935 5.5763 14.9614 5.49484 15.0178 5.41174L13.3631 4.28831C13.37 4.27825 13.3723 4.27611 13.3601 4.29141C13.3468 4.30829 13.3282 4.33108 13.2936 4.37337L14.8415 5.63984ZM14.8427 5.63832L14.8428 5.63828L13.2923 4.37493L13.2923 4.37497L14.8427 5.63832ZM14.6982 5.8149C14.685 5.83628 14.6807 5.8392 14.7104 5.80144C14.7383 5.76602 14.7774 5.71817 14.8414 5.63988L13.2935 4.37341C13.1962 4.49236 13.077 4.63431 12.9984 4.76109L14.6982 5.8149ZM14.6982 5.8149V5.8149L12.9984 4.76109C12.2779 5.92331 12.9101 7.4497 14.2414 7.76203L14.6982 5.8149ZM14.9232 5.83739C14.8226 5.82733 14.7611 5.82114 14.7164 5.81582C14.6687 5.81014 14.6738 5.80916 14.6982 5.8149L14.2414 7.76203C14.3866 7.7961 14.5713 7.81218 14.7242 7.82747L14.9232 5.83739ZM15.2089 5.87395C15.1103 5.85511 15.0048 5.84555 14.9232 5.83739L14.7242 7.82747C14.7785 7.8329 14.8077 7.83585 14.8291 7.83833C14.8484 7.84058 14.8453 7.84067 14.8334 7.83839L15.2089 5.87395ZM16.8254 7.66023C16.7459 6.77065 16.0861 6.04164 15.2089 5.87395L14.8334 7.83839V7.83839L16.8254 7.66023ZM16.8334 7.94813C16.8334 7.86613 16.8344 7.76018 16.8254 7.66022L14.8334 7.8384C14.8323 7.8263 14.8327 7.8232 14.833 7.84268C14.8333 7.86419 14.8334 7.89356 14.8334 7.94813H16.8334ZM16.8334 8.8855V7.94813H14.8334V8.8855H16.8334ZM16.8254 9.173C16.8344 9.07318 16.8334 8.96739 16.8334 8.8855H14.8334C14.8334 8.94 14.8333 8.96933 14.833 8.9908C14.8327 9.01026 14.8323 9.00716 14.8334 8.99508L16.8254 9.173ZM15.2086 10.9596C16.0861 10.792 16.746 10.0628 16.8254 9.17299L14.8334 8.99509L14.8334 8.99509L15.2086 10.9596ZM14.9234 10.9961C15.0048 10.9879 15.1102 10.9784 15.2086 10.9596L14.8334 8.99509C14.8453 8.99281 14.8484 8.9929 14.8291 8.99515C14.8077 8.99762 14.7786 9.00057 14.7243 9.00599L14.9234 10.9961ZM14.8238 11.001H14.8238V9.00103H14.8238V11.001ZM14.6987 11.0185C14.6743 11.0243 14.6692 11.0233 14.7168 11.0176C14.7615 11.0123 14.8229 11.0061 14.9233 10.9961L14.7243 9.00599C14.5717 9.02126 14.3873 9.03732 14.2423 9.07131L14.6987 11.0185ZM14.6987 11.0185H14.6987L14.2423 9.07131C12.9106 9.38347 12.2782 10.9103 12.9991 12.0727L14.6987 11.0185ZM14.8417 11.1933C14.7777 11.1151 14.7387 11.0673 14.7109 11.032C14.6812 10.9943 14.6855 10.9972 14.6987 11.0185L12.9991 12.0726C13.0776 12.1992 13.1966 12.341 13.2938 12.4597L14.8417 11.1933ZM14.836 11.1863L14.8359 11.1863L13.2995 12.4667L13.2995 12.4667L14.836 11.1863ZM15.0177 11.4209C14.9614 11.338 14.8936 11.2567 14.8417 11.1933L13.2938 12.4598C13.3283 12.502 13.3469 12.5247 13.3602 12.5415C13.3723 12.5568 13.3701 12.5547 13.3632 12.5446L15.0177 11.4209ZM14.8977 13.8274C15.4706 13.142 15.5196 12.1599 15.0177 11.4209L13.3632 12.5446V12.5446L14.8977 13.8274ZM14.6999 14.0364C14.7579 13.9784 14.8334 13.9043 14.8977 13.8274L13.3632 12.5446C13.371 12.5353 13.3735 12.5334 13.3599 12.5474C13.345 12.5628 13.3243 12.5836 13.2857 12.6221L14.6999 14.0364ZM14.0371 14.6992L14.6999 14.0364L13.2857 12.6221L12.6229 13.2849L14.0371 14.6992ZM14.0371 14.6992L14.0371 14.6992L12.6229 13.2849L12.6229 13.285L14.0371 14.6992ZM13.8279 14.8971C13.9049 14.8328 13.9791 14.7572 14.0371 14.6992L12.6229 13.285C12.5843 13.3236 12.5635 13.3443 12.5481 13.3593C12.5341 13.3728 12.536 13.3703 12.5453 13.3625L13.8279 14.8971ZM11.4218 15.0171C12.1606 15.5189 13.1427 15.4699 13.828 14.8971L12.5453 13.3625L12.5453 13.3625L11.4218 15.0171ZM11.1939 14.841C11.2574 14.8929 11.3387 14.9607 11.4218 15.0171L12.5453 13.3625C12.5554 13.3694 12.5575 13.3716 12.5422 13.3595C12.5254 13.3462 12.5026 13.3276 12.4604 13.2931L11.1939 14.841ZM11.019 14.6978C10.9976 14.6846 10.9947 14.6803 11.0324 14.71C11.0678 14.7379 11.1157 14.7769 11.1939 14.841L12.4604 13.2931C12.3415 13.1958 12.1996 13.0766 12.0728 12.998L11.019 14.6978ZM11.019 14.6978V14.6978L12.0728 12.998C10.9106 12.2775 9.38417 12.9097 9.07184 14.241L11.019 14.6978ZM10.9965 14.9229C11.0065 14.8222 11.0127 14.7608 11.0181 14.716C11.0237 14.6682 11.0247 14.6733 11.019 14.6978L9.07184 14.241C9.03778 14.3862 9.02169 14.571 9.0064 14.7239L10.9965 14.9229ZM10.9965 14.9229L10.9965 14.9229L9.0064 14.7239L9.00639 14.7239L10.9965 14.9229ZM10.9598 15.2091C10.9787 15.1104 10.9883 15.0047 10.9965 14.9229L9.00639 14.7239C9.00095 14.7783 8.99799 14.8076 8.99551 14.829C8.99326 14.8485 8.99316 14.8453 8.99545 14.8334L10.9598 15.2091ZM9.17383 16.8254C10.0632 16.7458 10.7921 16.0862 10.9598 15.2091L8.99545 14.8334L8.99545 14.8334L9.17383 16.8254ZM8.88557 16.8334C8.96767 16.8334 9.07375 16.8344 9.17383 16.8254L8.99545 14.8334C9.00756 14.8323 9.01066 14.8327 8.99115 14.833C8.96962 14.8333 8.94021 14.8334 8.88557 14.8334V16.8334ZM7.9486 16.8334H8.88557V14.8334H7.9486V16.8334ZM7.66041 16.8254C7.76047 16.8344 7.86652 16.8334 7.9486 16.8334V14.8334C7.89397 14.8334 7.86457 14.8333 7.84305 14.833C7.82354 14.8327 7.82665 14.8323 7.83876 14.8334L7.66041 16.8254ZM5.87435 15.209C6.04208 16.0861 6.77097 16.7458 7.66042 16.8254L7.83875 14.8334H7.83875L5.87435 15.209ZM5.83775 14.9231C5.84591 15.0048 5.85548 15.1104 5.87435 15.209L7.83875 14.8334C7.84103 14.8453 7.84094 14.8484 7.83869 14.8291C7.83621 14.8077 7.83325 14.7784 7.82782 14.7241L5.83775 14.9231ZM5.81523 14.6979C5.80948 14.6734 5.81046 14.6683 5.81615 14.7161C5.82148 14.7608 5.82767 14.8224 5.83774 14.9231L7.82782 14.7241C7.81252 14.571 7.79643 14.3862 7.7623 14.2409L5.81523 14.6979ZM5.81523 14.6979H5.81523L7.7623 14.2409C7.44985 12.9098 5.92376 12.2777 4.76164 12.9979L5.81523 14.6979ZM5.64011 14.8412C5.71845 14.7771 5.76632 14.738 5.80177 14.7101C5.83954 14.6804 5.83662 14.6847 5.81523 14.6979L4.76164 12.9979C4.63473 13.0766 4.49266 13.1959 4.37364 13.2933L5.64011 14.8412ZM5.65765 14.8265L5.65767 14.8265L4.35608 13.308L4.35606 13.308L5.65765 14.8265ZM5.41199 15.0176C5.4951 14.9611 5.57656 14.8932 5.6401 14.8412L4.37361 13.2933C4.33133 13.3279 4.30856 13.3465 4.29167 13.3599C4.27638 13.372 4.27853 13.3697 4.28859 13.3629L5.41199 15.0176ZM3.00612 14.8976C3.69135 15.4702 4.67317 15.5192 5.41198 15.0176L4.28859 13.3629H4.28859L3.00612 14.8976ZM2.79669 14.6994C2.85474 14.7575 2.92903 14.8331 3.00612 14.8976L4.28859 13.3629C4.29792 13.3707 4.29982 13.3731 4.28581 13.3596C4.27035 13.3446 4.24953 13.3238 4.2109 13.2852L2.79669 14.6994ZM2.13406 14.0368L2.79669 14.6994L4.21091 13.2852L3.54827 12.6226L2.13406 14.0368ZM1.93611 13.8276C2.00047 13.9046 2.07608 13.9788 2.13406 14.0368L3.54827 12.6226C3.50969 12.584 3.48894 12.5632 3.47397 12.5477C3.46041 12.5337 3.46289 12.5356 3.47068 12.545L1.93611 13.8276ZM1.8161 11.4214C1.31436 12.1603 1.36333 13.1423 1.93611 13.8276L3.47068 12.545L3.47068 12.545L1.8161 11.4214ZM1.99226 11.1936C1.94033 11.257 1.87248 11.3384 1.8161 11.4214L3.47068 12.545C3.46386 12.555 3.46158 12.5572 3.47368 12.5419C3.48703 12.525 3.50561 12.5023 3.54017 12.46L1.99226 11.1936ZM2.01365 11.1683L2.01363 11.1683L3.51879 12.4853L3.5188 12.4853L2.01365 11.1683ZM2.1354 11.0186C2.14865 10.9972 2.15295 10.9943 2.12324 11.0321C2.09537 11.0675 2.0563 11.1153 1.99227 11.1935L3.54019 12.46C3.63747 12.3411 3.75665 12.1992 3.83524 12.0724L2.1354 11.0186ZM2.1354 11.0186H2.1354L3.83524 12.0724C4.55576 10.9102 3.92351 9.3838 2.59221 9.07147L2.1354 11.0186ZM1.91034 10.9961C2.01101 11.0062 2.07249 11.0124 2.11727 11.0177C2.165 11.0234 2.15989 11.0243 2.1354 11.0186L2.59221 9.07147C2.44699 9.0374 2.2623 9.02132 2.10935 9.00602L1.91034 10.9961ZM1.93162 10.998L1.93165 10.998L2.08804 9.00412L2.088 9.00412L1.93162 10.998ZM1.62435 10.9595C1.723 10.9784 1.82865 10.9879 1.91029 10.9961L2.10933 9.00602C2.05497 9.00058 2.02571 8.99763 2.00431 8.99515C1.98492 8.99289 1.98806 8.9928 2.00002 8.99509L1.62435 10.9595ZM0.0079639 9.17339C0.0875788 10.0629 0.747231 10.7918 1.62437 10.9595L2 8.99509L2 8.99509L0.0079639 9.17339ZM0 8.88526C0 8.96732 -0.000990391 9.07335 0.0079639 9.17339L2 8.99509C2.00108 9.00719 2.00068 9.01029 2.00037 8.99079C2.00003 8.96927 2 8.93987 2 8.88526H0ZM5.96046e-08 7.94838L0 8.88526H2V7.94838H5.96046e-08ZM0.00798696 7.65983C-0.000993252 7.76001 5.96046e-08 7.86619 5.96046e-08 7.94838H2C2 7.89369 2.00003 7.86424 2.00037 7.84269C2.00068 7.82316 2.00109 7.82627 2 7.83839L0.00798696 7.65983ZM1.62411 5.87403C0.747187 6.04183 0.0876997 6.77056 0.00798696 7.65983L2 7.83839L1.62411 5.87403ZM1.91047 5.83737C1.82868 5.84555 1.72291 5.85512 1.62411 5.87403L2 7.83839C1.98804 7.84068 1.98491 7.84058 2.00432 7.83833C2.02574 7.83584 2.05504 7.83288 2.10947 7.82744L1.91047 5.83737ZM1.92243 5.83624L1.9224 5.83625L2.09755 7.82856L2.09758 7.82856L1.92243 5.83624ZM2.13588 5.81482C2.16041 5.80906 2.16553 5.81005 2.11773 5.81574C2.07289 5.82108 2.01132 5.82728 1.9105 5.83736L2.10951 7.82744C2.26269 7.81212 2.44769 7.79601 2.59317 7.76185L2.13588 5.81482ZM2.13588 5.81483H2.13588L2.59317 7.76185C3.92399 7.44928 4.556 5.92347 3.83598 4.76143L2.13588 5.81483ZM1.99247 5.63954C2.05663 5.71796 2.09578 5.76587 2.1237 5.80135C2.15346 5.83916 2.14915 5.83624 2.13588 5.81483L3.83598 4.76143C3.75727 4.63439 3.63786 4.4922 3.54038 4.37307L1.99247 5.63954ZM2.00213 5.65117L2.00214 5.65118L3.53072 4.36144L3.53071 4.36142L2.00213 5.65117ZM1.816 5.41126C1.87247 5.49444 1.94044 5.57595 1.99246 5.63953L3.54037 4.37306C3.50576 4.33075 3.48715 4.30796 3.47377 4.29107C3.46165 4.27576 3.46393 4.27791 3.47076 4.28798L1.816 5.41126ZM1.93598 3.00561C1.36348 3.69081 1.31452 4.67249 1.816 5.41126L3.47076 4.28798L1.93598 3.00561ZM2.13428 2.79603C2.07619 2.85412 2.00045 2.92846 1.93598 3.00561L3.47076 4.28798C3.46296 4.29731 3.46048 4.29922 3.47406 4.2852C3.48906 4.26972 3.50984 4.2489 3.5485 4.21024L2.13428 2.79603ZM2.13429 2.79602L2.13428 2.79603L3.5485 4.21024L3.54851 4.21023L2.13429 2.79602ZM2.79679 2.13352L2.13429 2.79602L3.5485 4.21023L4.211 3.54773L2.79679 2.13352ZM3.00618 1.93539C2.9291 1.9998 2.85482 2.07549 2.79679 2.13352L4.211 3.54773C4.24963 3.50911 4.27044 3.48834 4.2859 3.47336C4.29991 3.45979 4.298 3.46227 4.28867 3.47007L3.00618 1.93539ZM5.41209 1.8154C4.67327 1.31378 3.69143 1.36275 3.00618 1.93539L4.28867 3.47006V3.47007L5.41209 1.8154ZM5.64024 1.99177C5.57668 1.93976 5.4952 1.87182 5.4121 1.8154L4.28867 3.47006C4.27861 3.46323 4.27646 3.46095 4.29177 3.47308C4.30867 3.48646 4.33146 3.50508 4.37376 3.53968L5.64024 1.99177ZM5.81528 2.13498C5.83665 2.14824 5.83957 2.15254 5.8018 2.12281C5.76637 2.09492 5.71852 2.05582 5.64024 1.99177L4.37376 3.53968C4.49271 3.63701 4.63465 3.7562 4.76137 3.83477L5.81528 2.13498ZM5.81528 2.13498H5.81528L4.76137 3.83477C5.92363 4.5554 7.45015 3.92309 7.76243 2.59169L5.81528 2.13498ZM5.83776 1.91014C5.8277 2.01073 5.82152 2.07215 5.81619 2.11688C5.81052 2.16456 5.80954 2.15945 5.81528 2.13498L7.76243 2.59169C7.79648 2.44653 7.81255 2.26197 7.82783 2.10915L5.83776 1.91014ZM5.83598 1.92988L5.83598 1.9299L7.82961 2.08939L7.82961 2.08938L5.83598 1.92988ZM5.8743 1.62459C5.85547 1.72311 5.84592 1.82858 5.83776 1.91012L7.82784 2.10914C7.83326 2.05487 7.83621 2.02566 7.83869 2.0043C7.84094 1.98495 7.84103 1.98807 7.83875 1.99999L5.8743 1.62459ZM7.66067 0.00794411C6.77102 0.0874751 6.04196 0.747269 5.8743 1.62458L7.83875 2V2L7.66067 0.00794411ZM7.94845 0C7.86648 0 7.76058 -0.000988007 7.66067 0.00794411L7.83875 2C7.82666 2.00108 7.82356 2.00068 7.84304 2.00037C7.86454 2.00003 7.8939 2 7.94845 2V0ZM8.88572 0H7.94845V2H8.88572V0ZM9.17358 0.00794864C9.07364 -0.000988483 8.96771 0 8.88572 0V2C8.94028 2 8.96966 2.00003 8.99116 2.00037C9.01064 2.00068 9.00754 2.00108 8.99545 2L9.17358 0.00794864ZM10.9599 1.62453C10.7922 0.74726 10.0632 0.0874992 9.17358 0.0079487L8.99545 2V2L10.9599 1.62453ZM10.9964 1.91013C10.9883 1.82859 10.9787 1.72308 10.9599 1.62453L8.99545 2C8.99317 1.98807 8.99326 1.98494 8.99551 2.0043C8.99799 2.02566 9.00094 2.05488 9.00637 2.10917L10.9964 1.91013ZM10.3834 8.41669C10.3834 9.50285 9.50285 10.3834 8.41669 10.3834V12.3834C10.6074 12.3834 12.3834 10.6074 12.3834 8.41669H10.3834ZM8.41669 6.45001C9.50285 6.45001 10.3834 7.33052 10.3834 8.41669H12.3834C12.3834 6.22595 10.6074 4.45001 8.41669 4.45001V6.45001ZM6.45001 8.41669C6.45001 7.33052 7.33052 6.45001 8.41669 6.45001V4.45001C6.22595 4.45001 4.45001 6.22595 4.45001 8.41669H6.45001ZM8.41669 10.3834C7.33052 10.3834 6.45001 9.50285 6.45001 8.41669H4.45001C4.45001 10.6074 6.22595 12.3834 8.41669 12.3834V10.3834Z" fill="#959595"/>
</svg>
