<svg width="295" height="145" viewBox="0 0 295 145" fill="none" xmlns="http://www.w3.org/2000/svg">
<g filter="url(#filter0_d_222_367)">
<path fill-rule="evenodd" clip-rule="evenodd" d="M416.914 65.6549C469.142 138.008 373.026 228.285 343.322 312.431C325.721 362.29 314.779 411.156 280.681 451.567C238.073 502.065 194.695 570.55 128.733 566.751C62.6056 562.943 37.8361 481.066 -9.6123 434.85C-65.813 380.109 -156.702 352.676 -170.366 275.42C-185.892 187.63 -155.971 81.7314 -80.4395 34.3698C-7.85512 -11.1438 79.363 59.8359 164.868 65.2144C252.035 70.6975 365.794 -5.16188 416.914 65.6549Z" fill="#63AA28"/>
<path fill-rule="evenodd" clip-rule="evenodd" d="M416.914 65.6549C469.142 138.008 373.026 228.285 343.322 312.431C325.721 362.29 314.779 411.156 280.681 451.567C238.073 502.065 194.695 570.55 128.733 566.751C62.6056 562.943 37.8361 481.066 -9.6123 434.85C-65.813 380.109 -156.702 352.676 -170.366 275.42C-185.892 187.63 -155.971 81.7314 -80.4395 34.3698C-7.85512 -11.1438 79.363 59.8359 164.868 65.2144C252.035 70.6975 365.794 -5.16188 416.914 65.6549Z" fill="url(#paint0_linear_222_367)"/>
</g>
<defs>
<filter id="filter0_d_222_367" x="-174.343" y="0.212646" width="637.526" height="571.69" filterUnits="userSpaceOnUse" color-interpolation-filters="sRGB">
<feFlood flood-opacity="0" result="BackgroundImageFix"/>
<feColorMatrix in="SourceAlpha" type="matrix" values="0 0 0 0 0 0 0 0 0 0 0 0 0 0 0 0 0 0 127 0" result="hardAlpha"/>
<feOffset dx="19" dy="-7"/>
<feGaussianBlur stdDeviation="6"/>
<feComposite in2="hardAlpha" operator="out"/>
<feColorMatrix type="matrix" values="0 0 0 0 0 0 0 0 0 0 0 0 0 0 0 0 0 0 0.1 0"/>
<feBlend mode="normal" in2="BackgroundImageFix" result="effect1_dropShadow_222_367"/>
<feBlend mode="normal" in="SourceGraphic" in2="effect1_dropShadow_222_367" result="shape"/>
</filter>
<linearGradient id="paint0_linear_222_367" x1="12.4998" y1="11.5" x2="294.5" y2="352" gradientUnits="userSpaceOnUse">
<stop stop-color="#285CAA"/>
<stop offset="1" stop-color="#06FFC3"/>
</linearGradient>
</defs>
</svg>
