<svg width="10" height="18" viewBox="0 0 10 18" fill="none" xmlns="http://www.w3.org/2000/svg">
<path d="M0.860367 3.01413C0.321716 2.38473 0.395284 1.43784 1.02469 0.899185C1.65409 0.360535 2.60098 0.434103 3.13963 1.0635L0.860367 3.01413ZM8 9.04969L9.13963 8.07437L9.97432 9.04969L9.13963 10.025L8 9.04969ZM3.13963 17.0359C2.60098 17.6653 1.65409 17.7388 1.02469 17.2002C0.395284 16.6615 0.321716 15.7146 0.860367 15.0852L3.13963 17.0359ZM3.13963 1.0635L9.13963 8.07437L6.86037 10.025L0.860367 3.01413L3.13963 1.0635ZM9.13963 10.025L3.13963 17.0359L0.860367 15.0852L6.86037 8.07437L9.13963 10.025Z" fill="#959595"/>
</svg>
